<?xml version="1.0" standalone="no"?><!DOCTYPE svg PUBLIC "-//W3C//DTD SVG 1.1//EN" "http://www.w3.org/Graphics/SVG/1.1/DTD/svg11.dtd"><svg t="1619688706558" class="icon" viewBox="0 0 1024 1024" version="1.1" xmlns="http://www.w3.org/2000/svg" p-id="1184" width="100" height="100" xmlns:xlink="http://www.w3.org/1999/xlink"><defs><style type="text/css"></style></defs><path d="M1006.438 17.548c-0.032 0-430.43-112.966-780.45 237.022-288.99 289.008-33.522 576.966-33.522 576.966s287.958 255.484 576.952-33.55C1119.436 448.012 1006.468 17.612 1006.438 17.548z" fill="#9ED36A" p-id="1185"></path><path d="M1006.438 17.548l-42.674-8.216c0.032 0.062 112.998 438.678-236.99 788.652-96.344 96.406-192.598 132.208-278.104 137.144 95.41 5.5 208-24.368 320.748-137.144C1119.436 448.012 1006.468 17.612 1006.438 17.548z" fill="#FFFFFF" opacity=".2" p-id="1186"></path><path d="M600.406 423.612c-8.308-8.34-21.836-8.34-30.148 0L6.4 987.426c-8.326 8.372-8.326 21.868 0 30.18 8.326 8.308 21.822 8.308 30.162 0L600.406 453.76c8.34-8.342 8.34-21.838 0-30.148z" fill="#8AC054" p-id="1187"></path></svg>